<?xml version="1.0" encoding="UTF-8" standalone="no"?>

<svg
   width="120"
   height="120"
   viewBox="0 0 120 120"
   version="1.1"
   id="svg5">
  <defs
     id="defs2" />
  <g
     id="layer1">
    <path
       id="circle221"
       style="fill:#800000;stroke-width:1.30807"
       d="M 60 10 A 50 50 0 0 0 10 60 A 50 50 0 0 0 60 110 A 50 50 0 0 0 110 60 A 50 50 0 0 0 60 10 z M 60 20 A 40 40 0 0 1 100 60 A 40 40 0 0 1 60 100 A 40 40 0 0 1 20 60 A 40 40 0 0 1 60 20 z " />
    <rect
       style="fill:#800000;stroke-width:0.279614"
       id="rect464"
       width="90.340698"
       height="8.654253"
       x="-130.02316"
       y="-4.3271236"
       transform="rotate(-135)" />
    <rect
       style="fill:#800000;stroke-width:0.279614"
       id="rect466"
       width="90.340698"
       height="8.654253"
       x="-45.170349"
       y="-89.179939"
       transform="rotate(135)" />
  </g>
</svg>
